<?xml version="1.0" encoding="UTF-8" standalone="no"?><!DOCTYPE svg PUBLIC "-//W3C//DTD SVG 1.1//EN" "http://www.w3.org/Graphics/SVG/1.1/DTD/svg11.dtd"><svg width="100%" height="100%" viewBox="0 0 400 400" version="1.1" xmlns="http://www.w3.org/2000/svg" xmlns:xlink="http://www.w3.org/1999/xlink" xml:space="preserve" xmlns:serif="http://www.serif.com/" style="fill-rule:evenodd;clip-rule:evenodd;stroke-linejoin:round;stroke-miterlimit:2;"><rect id="Alteryx-Social-GitHub" serif:id="Alteryx Social GitHub" x="0" y="0" width="400" height="400" style="fill:none;"/><clipPath id="_clip1"><rect x="0" y="0" width="400" height="400"/></clipPath><g clip-path="url(#_clip1)"><path d="M400,53.525c0,-29.541 -23.984,-53.525 -53.525,-53.525l-292.95,0c-29.541,0 -53.525,23.984 -53.525,53.525l-0,292.95c-0,29.541 23.984,53.525 53.525,53.525l292.95,0c29.541,0 53.525,-23.984 53.525,-53.525l0,-292.95Z"/><path id="a" d="M236.359,279.242l-0.885,0.654l-0.926,0.554c-16.448,11.381 -41.009,18.987 -61.163,18.987l-0.027,0c-29.54,-0.645 -40.299,-11.095 -40.889,-39.519c0.641,-32.753 11.594,-42.848 48.486,-45.176l50.919,-2.383l2.273,-0.097l2.212,-0.065l0,67.045Zm92.726,16.106c-1.637,-5.499 -6.242,-8.883 -11.787,-8.883c-1.489,0.079 -2.863,0.166 -4.656,0.577c-7.892,1.899 -12.276,2.475 -18.342,2.904c-11.516,0.553 -13.544,-3.942 -14.305,-16.886l0,-177.227c-0.345,-4.107 -2.484,-8.196 -5.637,-10.667l-1.157,-0.737c-0.36,-0.295 -0.733,-0.664 -1.222,-0.909c-9.616,-5.665 -25.616,-10.215 -39.22,-13.654l-1.005,-0.295c-16.134,-3.904 -33.988,-5.96 -51.62,-5.96c-10.376,-0 -19.744,0.783 -23.487,1.263c-7.749,0.747 -28.682,4.232 -35.721,6.638c-2.033,0.655 -8.648,3.794 -8.864,10.022c0.115,3.24 3.77,13.603 3.77,13.603c2.384,7.256 4.901,9.021 9.483,9.957c3.678,0.415 11.616,-1.245 16.908,-2.162c13.664,-2.517 22.579,-3.471 28.973,-3.549c8.265,-0.129 18.665,-0.245 30.844,1.521c23.141,3.549 32.07,10.662 32.07,10.662l-0,68.833l-2.051,0.06l-49.431,1.24c-66.118,2.084 -96.704,28.309 -96.266,81.155c-0.106,23.999 7.422,43.254 21.749,55.705c13.304,11.676 32.822,17.83 56.308,17.83l0.088,0c26.972,0 50.154,-8.288 72.756,-26.197l2.162,-1.65l1.106,2.489c5.44,11.976 14.71,19.734 27.428,22.975c5.703,1.581 12.23,2.383 20.569,2.383c2.134,0 4.283,-0.11 6.2,-0.323c7.551,-1.027 17.582,-2.41 28.742,-7.693c6.14,-2.914 10.478,-6.509 10.156,-12.977c-0.245,-5.716 -4.541,-20.048 -4.541,-20.048" style="fill:#f7f7f7;fill-rule:nonzero;"/></g></svg>